<svg viewBox="0 0 91.00 91.00" enable-background="new 0 0 91 91" id="Layer_1" version="1.1" xml:space="preserve" xmlns="http://www.w3.org/2000/svg" xmlns:xlink="http://www.w3.org/1999/xlink" fill="#ffdd00" stroke="#ffdd00"><g id="SVGRepo_bgCarrier" stroke-width="0"></g><g id="SVGRepo_tracerCarrier" stroke-linecap="round" stroke-linejoin="round" stroke="#e9fa00" stroke-width="1.2740000000000002"> <g> <g> <path d="M63.471,42.083L45.727,20.791l-17.74,21.292L0.777,20.791l10.646,44.943 c0,5.557,4.508,10.061,10.061,10.061h48.491c5.553,0,10.059-4.504,10.059-10.061l10.645-44.943L63.471,42.083z M45.762,52.306 c-2.246,0-4.07-1.824-4.07-4.07c0-2.248,1.824-4.07,4.07-4.07c2.248,0,4.07,1.822,4.07,4.07 C49.832,50.481,48.01,52.306,45.762,52.306z" fill="#ccc500"></path> </g> </g> </g><g id="SVGRepo_iconCarrier"> <g> <g> <path d="M63.471,42.083L45.727,20.791l-17.74,21.292L0.777,20.791l10.646,44.943 c0,5.557,4.508,10.061,10.061,10.061h48.491c5.553,0,10.059-4.504,10.059-10.061l10.645-44.943L63.471,42.083z M45.762,52.306 c-2.246,0-4.07-1.824-4.07-4.07c0-2.248,1.824-4.07,4.07-4.07c2.248,0,4.07,1.822,4.07,4.07 C49.832,50.481,48.01,52.306,45.762,52.306z" fill="#ccc500"></path> </g> </g> </g></svg>